<?xml version="1.0" encoding="UTF-8"?>
<!DOCTYPE svg PUBLIC "-//W3C//DTD SVG 1.1//EN" "http://www.w3.org/Graphics/SVG/1.1/DTD/svg11.dtd">
<!-- Creator: CorelDRAW -->
<svg xmlns="http://www.w3.org/2000/svg" xml:space="preserve" width="69.744mm" height="86.783mm" version="1.1" style="shape-rendering:geometricPrecision; text-rendering:geometricPrecision; image-rendering:optimizeQuality; fill-rule:evenodd; clip-rule:evenodd"
viewBox="0 0 6974.4 8678.3"
 xmlns:xlink="http://www.w3.org/1999/xlink"
 xmlns:xodm="http://www.corel.com/coreldraw/odm/2003">
 <defs>
  <style type="text/css">
   <![CDATA[
    .fil0 {fill:#161616;fill-rule:nonzero}
    .fil1 {fill:#7D281C;fill-rule:nonzero}
   ]]>
  </style>
 </defs>
 <g id="Layer_x0020_1">
  <metadata id="CorelCorpID_0Corel-Layer"/>
  <path class="fil0" d="M6755.74 3596.3l-188.96 0c-31.93,-1259.5 -832.61,-2372.07 -2017,-2801.78l1565.5 0.16c42.54,164.93 191.35,280.17 361.69,280.17 206.27,0 373.55,-167.28 373.55,-373.55 0,-206.27 -167.28,-373.55 -373.55,-373.55 -170.34,0 -319.15,115.25 -361.69,280.15l-2254.55 0.01 0 -186.77c-0.01,-51.56 -41.83,-93.38 -93.39,-93.38l-560.32 -0.01c-51.56,0.01 -93.38,41.83 -93.38,93.39l-0.01 186.77 -2254.55 0c-42.53,-164.91 -191.35,-280.16 -361.68,-280.16 -206.27,0 -373.55,167.28 -373.55,373.55 0,206.27 167.28,373.55 373.55,373.55 170.33,0 319.15,-115.24 361.69,-280.15l1565.64 -0.02c-1184.55,429.55 -1985.23,1542.12 -2017.02,2801.68l-189.08 -0.06c-51.56,0.01 -93.38,41.83 -93.38,93.39l0 560.33c0,51.56 41.82,93.38 93.39,93.38l560.31 0c51.58,0 93.4,-41.82 93.4,-93.38l-0.01 -560.33c0.01,-51.56 -41.81,-93.38 -93.38,-93.38l-184.6 -0.01c38.64,-1420.36 1109.49,-2600.82 2519.37,-2777.19l-0.1 162.35c0.01,51.57 41.83,93.39 93.4,93.39l560.31 0c51.56,0 93.38,-41.82 93.38,-93.39l0.01 -162.21c1409.79,176.23 2480.63,1356.69 2519.28,2777.11l-184.6 -0.06c-51.57,0.01 -93.39,41.83 -93.39,93.39l0 560.33c0,51.56 41.82,93.38 93.38,93.38l560.34 0c51.55,0 93.38,-41.82 93.38,-93.38l0 -560.33c0,-51.56 -41.83,-93.38 -93.39,-93.38l0.01 -0.01z"/>
  <path class="fil1" d="M3757.49 1500.01c-15.81,-31.64 -48.16,-51.63 -83.54,-51.63 -51.57,0 -93.39,41.82 -93.39,93.39 0,0 0,0.02 0,0.02l0.01 3026.67c-0.01,36.93 21.77,70.39 55.52,85.35 136.39,59.28 224.63,193.86 224.63,342.58 0,206.27 -167.27,373.55 -373.54,373.55 -206.26,0 -373.54,-167.28 -373.54,-373.55 0,-148.72 88.25,-283.3 224.61,-342.59 33.78,-14.95 55.55,-48.41 55.55,-85.34l-0.01 -3026.68c0.01,0.01 0.01,-0.01 0.01,-0.01 0,-51.57 -41.82,-93.39 -93.38,-93.39 -35.38,0 -67.73,19.99 -83.54,51.64l-1774.36 3548.71c-6.46,12.95 -9.85,27.27 -9.85,41.76 0,14.49 3.39,28.81 9.86,41.77l679.49 1359.05 2730.32 0 679.51 -1359.04c6.45,-12.97 9.85,-27.29 9.85,-41.78 0,-14.49 -3.4,-28.81 -9.86,-41.78l-1774.35 -3548.7z"/>
  <path class="fil1" d="M1899.6 6678.08l3175.16 0c51.56,-0.01 93.39,41.81 93.39,93.37l0 560.34c0,51.55 -41.83,93.38 -93.39,93.38l-3175.16 0.01c-51.56,-0.01 -93.38,-41.84 -93.38,-93.4l-0.01 -560.31c0.01,-51.58 41.83,-93.4 93.4,-93.4z"/>
  <path class="fil1" d="M2086.37 8265.66c0.01,51.56 41.84,93.38 93.4,93.38l2614.83 0.01c51.56,-0.01 93.38,-41.83 93.38,-93.4l0.01 -653.7 -2801.62 0 0 653.71z"/>
 </g>
</svg>
