<?xml version="1.0" encoding="UTF-8"?>
<!DOCTYPE svg PUBLIC "-//W3C//DTD SVG 1.1//EN" "http://www.w3.org/Graphics/SVG/1.1/DTD/svg11.dtd">
<!-- Creator: CorelDRAW -->
<svg xmlns="http://www.w3.org/2000/svg" xml:space="preserve" width="118.533mm" height="86.783mm" version="1.1" style="shape-rendering:geometricPrecision; text-rendering:geometricPrecision; image-rendering:optimizeQuality; fill-rule:evenodd; clip-rule:evenodd"
viewBox="0 0 11853.3 8678.3"
 xmlns:xlink="http://www.w3.org/1999/xlink"
 xmlns:xodm="http://www.corel.com/coreldraw/odm/2003">
 <defs>
  <style type="text/css">
   <![CDATA[
    .fil0 {fill:#161616;fill-rule:nonzero}
    .fil1 {fill:#7D281C;fill-rule:nonzero}
   ]]>
  </style>
 </defs>
 <g id="Layer_x0020_1">
  <metadata id="CorelCorpID_0Corel-Layer"/>
  <path class="fil0" d="M2824.56 103.9l0 4756.5 2274.85 0 0 -798.26 2274.85 -1019.55 0 -872.71 -4549.7 -2065.98zm1861.24 2688.47l-827.22 0 0 -827.23 827.22 0 0 827.23z"/>
  <path class="fil1" d="M136.1 5274.02l0 3308.88 4963.31 -0.01 0 -3308.88 -4963.31 0.01zm2068.05 2068.04l-827.22 0 0 -827.22 827.22 0.01 0 827.21z"/>
  <path class="fil1" d="M5513.02 4330.99l0 4251.91 3929.28 -0.01 0 -2068.05 1240.83 0.01 0 2068.05 1034.03 -0.01 0 -7031.36 -6204.14 2779.46zm2481.66 3011.07l-827.22 0 0 -827.22 827.22 0.01 0 827.21z"/>
 </g>
</svg>
