<?xml version="1.0" encoding="UTF-8"?>
<!DOCTYPE svg PUBLIC "-//W3C//DTD SVG 1.1//EN" "http://www.w3.org/Graphics/SVG/1.1/DTD/svg11.dtd">
<!-- Creator: CorelDRAW -->
<svg xmlns="http://www.w3.org/2000/svg" xml:space="preserve" width="74.952mm" height="86.783mm" version="1.1" style="shape-rendering:geometricPrecision; text-rendering:geometricPrecision; image-rendering:optimizeQuality; fill-rule:evenodd; clip-rule:evenodd"
viewBox="0 0 7495.2 8678.3"
 xmlns:xlink="http://www.w3.org/1999/xlink"
 xmlns:xodm="http://www.corel.com/coreldraw/odm/2003">
 <defs>
  <style type="text/css">
   <![CDATA[
    .fil0 {fill:#161616}
    .fil1 {fill:#7D281C}
   ]]>
  </style>
 </defs>
 <g id="Layer_x0020_1">
  <metadata id="CorelCorpID_0Corel-Layer"/>
  <path class="fil0" d="M1688.45 3911.45c-204.28,-145.7 -425.02,-274.15 -748.18,-427.54 -402.62,-191.1 -919.78,-329.49 -842.44,-716.14 10.25,-51.31 58.21,-104.33 107.21,-85.95l727.2 273.14c7.56,2.85 15.89,-0.03 20.06,-6.94 41.66,-68.7 109.45,-113.41 186.03,-113.41 142.03,0 244.62,149.32 227.48,308.14 -0.79,7.24 2.99,13.87 9.62,16.89l1196.06 547.39c1.51,0.69 2.92,1.1 4.57,1.35 332.38,47.36 748.03,82.81 1171.01,96.02 0.35,0.02 0.67,0.02 1.03,0 422.96,-13.21 838.62,-48.66 1171.01,-96.02 1.67,-0.24 3.05,-0.64 4.57,-1.35l1196.07 -547.39c6.62,-3.03 10.38,-9.65 9.62,-16.89 -1.24,-11.44 -1.88,-23.1 -1.88,-34.94 0,-266.6 288.11,-372.02 415.36,-159.91 4.18,6.96 12.52,9.88 20.11,7.01l727.16 -273.12c49,-18.39 96.93,34.64 107.21,85.95 77.34,386.66 -439.84,525.04 -842.44,716.14 -727.09,345.11 -971.18,592.5 -1551.3,1091.2 -17.27,14.83 -32.84,33.37 -47.36,54.3 -0.7,0.99 -1.37,1.78 -2.25,2.6l-265.4 250.63c-3.44,3.26 -5.2,7.36 -5.2,12.09l0 1813.27c0,6.14 -3.04,11.4 -8.35,14.45 -572.94,328.27 -1281.85,328.21 -1854.85,0.06 -5.31,-3.05 -8.36,-8.33 -8.36,-14.45l0.03 -1813.31c0,-4.76 -1.76,-8.84 -5.2,-12.09l-265.4 -250.63c-0.87,-0.82 -1.55,-1.61 -2.24,-2.61 -14.53,-20.92 -30.1,-39.44 -47.37,-54.3 -271.89,-233.66 -541.55,-477.02 -803.2,-663.65l0.01 0.01z"/>
  <path class="fil0" d="M6274.73 1029.93c261.38,0 473.33,211.93 473.33,473.34 0,380.71 -363.34,786.9 -678.2,960.09 -66.19,36.39 -141.25,36.39 -207.42,0 -314.87,-173.22 -678.21,-579.39 -678.21,-960.09l0.23 -0.01c0.03,-401.77 467.03,-615.63 771.16,-367.44 6.18,5.04 14.83,5.08 21,0.04 83.5,-67.93 188.02,-105.94 298.11,-105.94l0 0.01zm-1799.9 38.57l-903.5 511.36c-154.2,87.28 -365.28,-3.33 -365.28,-164.92l0 -1022.73c0,-161.6 211.12,-252.18 365.28,-164.92l903.5 511.36c138.54,78.41 138.51,251.43 0,329.84l0 0.01zm-1380.24 1903.15c0,360.63 292.33,652.99 652.98,652.99 360.63,0 653,-292.36 653,-652.99 0,-360.65 -292.38,-652.97 -653,-652.97 -360.65,0 -652.98,292.34 -652.98,652.97zm-1326.16 -2070.75l127.45 394.83c7.59,23.47 28.22,38.29 52.8,38.23l414.89 -0.78c142.45,-0.27 200.87,182.4 86.2,265.37l-336.13 243.24c-20.23,14.64 -27.88,38.25 -20.11,61.98l128.97 394.35c43.99,134.53 -110.77,247.77 -225.74,163.88l-335.2 -244.53c-19.67,-14.35 -45.66,-14.35 -65.34,0l-335.2 244.53c-114.97,83.87 -269.73,-29.35 -225.74,-163.88l128.98 -394.35c7.74,-23.71 0.11,-47.32 -20.12,-61.98l-336.13 -243.24c-114.67,-82.99 -56.23,-265.64 86.2,-265.37l414.9 0.78c24.57,0.06 45.2,-14.78 52.79,-38.23l127.46 -394.83c43.67,-135.29 235.43,-135.29 279.09,0l-0.02 0z"/>
  <path class="fil1" d="M1517.2 4983.32c0,-276.22 50.25,-540.69 142.07,-784.78 2.62,-6.99 0.45,-14.56 -5.48,-19.09 -145.83,-111.07 -284.13,-201.45 -443.62,-291.37 -4.26,-2.42 -8.87,-2.85 -13.51,-1.26 -4.64,1.57 -8.02,4.72 -9.96,9.25 -44.51,104.65 -82.8,212.6 -114.39,323.37 -1.57,5.48 -5.43,9.48 -10.86,11.24l-672.95 218.65c-91.59,29.75 -151,111.53 -151,207.83l0 652.3c0,96.29 59.42,178.07 151,207.83l672.95 218.65c5.43,1.76 9.28,5.76 10.86,11.26 58.89,206.62 141.16,403.37 243.61,587.32 2.77,4.99 2.88,10.55 0.28,15.65l-321.42 630.82c-43.72,85.79 -27.9,185.64 40.18,253.74l461.25 461.25c68.08,68.08 167.93,83.89 253.73,40.18l630.83 -321.42c5.1,-2.6 10.65,-2.49 15.65,0.28 183.95,102.46 380.72,184.69 587.31,243.61 5.49,1.57 9.49,5.42 11.27,10.86l218.65 672.93c29.75,91.58 111.53,151 207.83,151l652.29 -0.01c96.3,0 178.08,-59.43 207.83,-151l218.65 -672.93c1.76,-5.43 5.77,-9.28 11.27,-10.86 206.61,-58.89 403.34,-141.17 587.31,-243.6 5,-2.78 10.56,-2.88 15.65,-0.29l630.83 321.42c85.8,43.72 185.65,27.91 253.73,-40.18l461.25 -461.25c68.09,-68.09 83.89,-167.93 40.18,-253.73l-321.42 -630.83c-2.6,-5.09 -2.49,-10.65 0.29,-15.65 102.45,-183.95 184.68,-380.72 243.6,-587.31 1.57,-5.48 5.43,-9.49 10.86,-11.27l672.95 -218.65c91.59,-29.75 151,-111.53 151,-207.83l0 -652.29c0,-96.29 -59.42,-178.08 -151,-207.84l-672.95 -218.65c-5.43,-1.76 -9.28,-5.76 -10.86,-11.26 -31.57,-110.77 -69.88,-218.71 -114.39,-323.37 -1.93,-4.51 -5.31,-7.65 -9.96,-9.22 -4.65,-1.57 -9.24,-1.16 -13.51,1.25 -159.48,89.91 -297.82,180.32 -443.64,291.38 -5.95,4.53 -8.08,12.09 -5.45,19.09 385.87,1025.56 -33.46,2172.09 -971.45,2715.79 -688.97,399.36 -1544.79,399.36 -2233.78,0 -665.8,-385.89 -1113.56,-1106.15 -1113.56,-1931.02l0 0.01z"/>
 </g>
</svg>
