<?xml version="1.0" encoding="UTF-8"?>
<!DOCTYPE svg PUBLIC "-//W3C//DTD SVG 1.1//EN" "http://www.w3.org/Graphics/SVG/1.1/DTD/svg11.dtd">
<!-- Creator: CorelDRAW -->
<svg xmlns="http://www.w3.org/2000/svg" xml:space="preserve" width="71mm" height="86mm" version="1.1" style="shape-rendering:geometricPrecision; text-rendering:geometricPrecision; image-rendering:optimizeQuality; fill-rule:evenodd; clip-rule:evenodd"
viewBox="0 0 7100 8600"
 xmlns:xlink="http://www.w3.org/1999/xlink"
 xmlns:xodm="http://www.corel.com/coreldraw/odm/2003">
 <defs>
  <style type="text/css">
   <![CDATA[
    .fil1 {fill:#161616;fill-rule:nonzero}
    .fil0 {fill:#7D281C;fill-rule:nonzero}
   ]]>
  </style>
 </defs>
 <g id="Layer_x0020_1">
  <metadata id="CorelCorpID_0Corel-Layer"/>
  <g id="_2820222692208">
   <path class="fil0" d="M6978.67 244.33c-5.71,-16.36 -23.53,-25.07 -39.96,-19.52 -211.8,69.77 -429.59,119.87 -650.6,149.63 -262.61,38.35 -529.87,31.12 -790.02,-21.37 -197.11,-44.73 -399.7,-60.39 -601.34,-46.48 -168.94,9.86 -333.64,56.82 -482.37,137.56 -54.58,30.65 -105.7,67.1 -152.43,108.75 -45.85,41.19 -86.97,87.32 -122.69,137.55 -36.38,49.3 -67.52,102.26 -92.94,158 -24.96,57.17 -44.24,116.62 -57.63,177.52 -32.55,160.71 -32.55,326.33 0,487.03 25.1,129.19 66.32,254.71 122.69,373.63 -307.11,270.79 -532.45,622 -650.6,1014.01 -117.71,-220.14 -275.27,-416.48 -464.72,-579.04 54.61,-118.55 94.25,-243.43 118.04,-371.77 32.56,-160.7 32.56,-326.32 0,-487.02 -13.41,-60.9 -32.69,-120.36 -57.63,-177.52 -25.42,-55.74 -56.55,-108.7 -92.94,-158.01 -35.71,-50.23 -76.84,-96.35 -122.68,-137.55 -46.75,-41.62 -97.85,-78.1 -152.43,-108.75 -148.71,-80.77 -313.43,-127.72 -482.38,-137.55 -203.16,-12.45 -407.02,5.08 -605.06,52.05 -260.15,52.49 -527.41,59.74 -790.02,21.38 -220.97,-29.47 -438.76,-79.23 -650.6,-148.71 -16.12,-4.97 -33.31,3.63 -39.03,19.52 -1.93,6.05 -1.93,12.55 0,18.59 93.73,387.51 222.2,765.76 383.85,1130.19 124.03,289.84 289.66,560.06 491.67,802.1l0.01 0c101.2,118.83 218.14,223.27 347.61,310.42 113,76.41 238.98,131.51 371.77,162.66 109.84,24.56 223.2,28.97 334.59,13.01 114.14,-16.91 224.48,-53.39 326.24,-107.82 42.73,-22.81 84.02,-48.28 123.62,-76.21 40.47,-28.71 79.28,-59.76 116.17,-92.94 11.69,-12.22 11.69,-31.45 0,-43.68l-4.65 -0.01c-110.21,-80.47 -227.48,-150.78 -350.4,-210.05 -118.97,-58.55 -238.86,-107.81 -356.9,-157.07 -181.75,-70.87 -358.71,-153.45 -529.77,-247.23 -177.94,-99.94 -337.11,-230.15 -470.3,-384.79 -45.36,-59.64 -33.78,-144.78 25.88,-190.16 55.05,-41.88 132.8,-35.62 180.46,14.5 245.37,287.19 566.95,420.1 897.83,557.65 133.83,55.77 268.6,111.54 400.58,176.59 110.2,54.37 216.44,116.51 317.86,185.89 210.15,177.24 377.59,399.64 489.81,650.6 -465.44,58.81 -906.17,242.89 -1275.17,532.57 92.94,328.09 326.23,531.64 540.93,715.66 268.6,214.71 502.82,412.67 513.04,777.01 4.65,271.39 -127.33,434.04 -274.18,613.42 -123.8,131.94 -214.86,291.13 -265.82,464.72 -13.78,114.44 -15.64,229.99 -5.57,344.82 10.22,261.17 21.37,564.17 -76.21,792.81 -70.87,202.1 -260.78,338.12 -474.94,340.17 292.17,242.12 633.85,417.24 1001,513.04 -38.42,-261.89 79.21,-522.15 301.13,-666.4 243.51,-178.45 650.6,-57.63 1072.57,68.78 312.29,92.94 637.59,185.89 850.43,157.07 738.02,-555.75 1126.91,-1460.48 1022.38,-2378.41 -243.51,-337.39 -550.22,-526.06 -814.18,-688.72 -507.47,-312.29 -882.03,-542.79 -626.44,-1351.39 -303.69,-149.1 -633.67,-237.2 -971.26,-259.32 149.64,-533.49 381.07,-851.35 645.02,-1070.7 101.45,-69.36 207.66,-131.49 317.87,-185.89 131.98,-65.06 266.74,-120.82 400.58,-176.59 330.88,-137.55 650.6,-270.47 897.83,-557.66 51.66,-54.3 137.56,-56.44 191.84,-4.78 50.12,47.67 56.34,125.4 14.5,180.45 -133.22,154.61 -292.36,284.83 -470.3,384.78 -171.06,93.79 -348.02,176.36 -529.77,247.23 -118.97,49.26 -237.94,98.52 -356.91,157.08 -122.91,59.25 -240.21,129.54 -350.39,210.05l-4.65 0.01c-11.69,12.22 -11.69,31.45 0,43.68 36.9,33.2 75.7,64.22 116.17,92.94 39.62,27.63 80.91,52.77 123.62,75.29 101.72,54.46 212.09,90.92 326.23,107.81 111.39,15.97 224.79,11.55 334.6,-13.01 132.79,-31.13 258.78,-86.25 371.77,-162.65 129.15,-87.23 245.79,-191.67 346.68,-310.43 202.33,-241.98 368.28,-512.18 492.6,-802.1 159,-364.08 284.98,-741.71 376.42,-1128.33 1.92,-6.04 1.92,-12.55 -0.01,-18.59z"/>
   <g>
    <g>
     <path class="fil1" d="M2659.6 5229.8c0,-210.05 -185.88,-365.27 -386.64,-539.07 -220.28,-185.89 -464.72,-395.94 -593.91,-724.96 -892.03,925.32 -974.93,2363.26 -195.18,3384.99 367.12,149.64 522.33,92.94 580.89,-43.68 68.78,-160.79 58.56,-422.89 50.19,-650.6 -12.99,-145.06 -7.99,-291.14 14.87,-434.97 60.62,-221.35 173.81,-424.77 329.95,-592.98l0.01 0c106.88,-130.13 202.62,-248.17 199.82,-398.73z"/>
    </g>
   </g>
   <g>
    <g>
     <path class="fil1" d="M4170.86 8015.3c-343.89,-102.24 -671.05,-199.82 -780.72,-119.9 -150.02,102.8 -208.38,296.07 -140.35,464.72 99.36,11.25 199.29,16.83 299.28,16.73 374.91,1.05 745.59,-79.16 1086.5,-235.15 -151.49,-33.46 -307.64,-79.92 -464.71,-126.4z"/>
    </g>
   </g>
   <g>
    <g>
     <path class="fil1" d="M4998.99 3606.09l0 0c-125.48,508.4 144.06,674.76 501.89,895.04 166.83,98.48 327.04,207.75 479.58,327.16 -194.39,-498.23 -536.97,-924.81 -981.47,-1222.2z"/>
    </g>
   </g>
  </g>
 </g>
</svg>
