<svg xmlns="http://www.w3.org/2000/svg" version="1.1" xmlns:xlink="http://www.w3.org/1999/xlink" width="512" height="512" x="0" y="0" viewBox="0 0 452.284 340.059" style="enable-background:new 0 0 512 512" xml:space="preserve"><g><path d="m0 321.394 8.735 4.867 8.659-15.54H87.31l-5.905 10.599 8.735 4.867 102.995-184.858 117.388 165.938h-.24c-3.666 0-6.666 3-6.666 6.666s3 6.667 6.667 6.667h135.333c3.667 0 6.667-3 6.667-6.667s-3-6.666-6.667-6.666h-9.594l-43.613-61.651a16.154 16.154 0 0 1-2.01 1.848 15.856 15.856 0 0 1-9.726 3.301c-5.022 0-9.653-2.285-12.706-6.268l-16.198-21.134-34.418-5.535a15.895 15.895 0 0 1-5.103-1.74c-7.81-2.636-13.663-17.405-13.715-17.566l-13.42-39.536-43.612-32.192c-5.545-4.093-6.726-11.934-2.633-17.48a12.552 12.552 0 0 1 10.061-5.077c2.687 0 5.252.845 7.418 2.444l24.464 18.057c-.179-.46-.362-.916-.517-1.39-2.202-6.727-1.651-13.909 1.55-20.222a26.54 26.54 0 0 1 4.945-6.812l-10.173-14.38h-1.133v-8.267h-3.2V37c0-20.402-16.598-37-37-37h-2.667c-10.911 0-20.732 4.75-27.51 12.289a42.797 42.797 0 0 1 6.704 14.918C215.497 19.41 223.435 14 232.617 14h2.667c12.683 0 23 10.318 23 23v36.667H206.95V37c0-20.402-16.598-37-37-37h-2.666c-20.402 0-37 16.598-37 37v36.667H114.15V85h17.557zM153.287 85l6.817 9.637h-22.319l5.37-9.637zM80.375 197.68l23.134-41.522h69.916l-23.134 41.521zm64.345 10-23.134 41.52H51.67l23.133-41.52zM22.965 300.72l23.133-41.52h69.917L92.88 300.72zm156.032-154.563H109.08l23.134-41.521h34.964l19.553 27.64zm160.026 161.109h-13L168.787 85h13zM144.284 70.818V37c0-12.682 10.317-23 23-23h2.666c12.683 0 23 10.318 23 23v36.667h-48.666z" fill="#7d281c" opacity="1" data-original="#000000"></path><path d="m297.467 144.488-44.681-32.98a6.5 6.5 0 1 0-7.721 10.46l45.127 33.308 14.044 41.38c.978 2.99 7.016 13.65 10.319 13.831a9.966 9.966 0 0 0 3.75 1.417l36.775 5.914 17.651 23.03a9.982 9.982 0 0 0 7.943 3.917 9.956 9.956 0 0 0 6.077-2.063c4.383-3.36 5.214-9.637 1.853-14.02l-20.071-26.188a9.997 9.997 0 0 0-6.349-3.79l-8.175-1.315 11.837-4.449 38.606 15.793a9.955 9.955 0 0 0 3.782.747c3.94 0 7.676-2.344 9.26-6.216 2.09-5.111-.358-10.95-5.47-13.041l-42.237-17.28a10.003 10.003 0 0 0-7.305-.105l-16.106 6.054-12.115-35.695 38.359-38.417a6.5 6.5 0 0 0-9.2-9.185l-40.506 40.568z" fill="#7d281c" opacity="1" data-original="#000000"></path><path d="M285.998 121.483c.103.315.236.613.353.92l-.171.01a1 1 0 0 0 .113 1.997l7.493-.428a8.614 8.614 0 0 0-.517 1.76l-5.074.348a20.445 20.445 0 0 0 7.741 7.146l-.045.065a1 1 0 0 0 1.64 1.145l.246-.352c.733.298 1.482.557 2.248.77a19.964 19.964 0 0 0 7.937 1.678c2.546 0 5.147-.52 7.552-1.747 3.796-1.936 6.784-5.462 8.413-9.93.305-.84.537-1.68.72-2.51.288-.759.52-1.538.715-2.328l.43.008h.019a1 1 0 0 0 .018-2l-.076-.001c.44-3.028.228-6.196-.788-9.301-.13-.4-.295-.78-.448-1.167l-3.277 3.921a8.673 8.673 0 0 0-1.73-.615l4.759-5.826a1 1 0 1 0-1.549-1.265l-.097.118c-4.947-7.574-14.509-11.222-23.517-8.275-10.76 3.52-16.63 15.098-13.108 25.859zm35.545-7.389.01.046.027-.005c.317.31.589.658.793 1.058 1.045 2.05.917 5.577-.325 8.986-.154.423-.351.91-.595 1.437l-.612-.693c-.233.206-.484.424-.748.652l.652.759c.221-.19.425-.37.625-.546-1.113 2.336-3.166 5.39-6.765 7.225-3.111 1.587-6.644 1.818-9.839 1.238.265-.06.537-.12.829-.19l-.23-.973c-.342.08-.665.155-.968.222l.204.916c-4.186-.8-7.76-2.998-8.981-5.39-.21-.413-.34-.831-.406-1.25l.036-.033-.05-.055c-.26-1.876.755-3.75 1.773-5.1 1.846-2.452 4.954-4.868 8.75-6.804 4.02-2.05 7.837-3.081 10.845-3.081 2.144 0 3.872.528 4.975 1.581z" fill="#7d281c" opacity="1" data-original="#000000"></path><path d="m310.608 117.274-.357-.933a44.25 44.25 0 0 0-.981.389l.38.925c.316-.13.635-.257.958-.38zM316.518 115.367l-.266-.964c-.33.09-.667.185-1.01.284l.278.961c.338-.098.671-.192.998-.281zM313.536 116.252l-.305-.952c-.33.105-.665.215-.998.328l.32.948c.33-.112.658-.22.983-.324zM307.315 118.718c.15-.076.303-.152.458-.227l-.435-.9c-.161.078-.32.157-.478.237l-.47.246.471.882zM305.083 119.983l-.527-.85a53.99 53.99 0 0 0-.89.566l.547.838c.289-.19.58-.374.87-.554zM297.595 125.513l-.643-.766c-.285.239-.553.466-.8.679l.652.759c.244-.21.508-.436.79-.672zM298.575 123.417l.623.781c.265-.21.536-.425.816-.643l-.616-.788c-.28.22-.556.437-.823.65zM301.073 121.5l.592.806c.276-.202.557-.405.84-.606l-.58-.815c-.287.204-.572.409-.852.615zM319.3 113.622c-.319.075-.66.158-1.02.249l.243.97c.356-.09.693-.172 1.007-.247zM312.84 130.622l.432.902a17.795 17.795 0 0 0 .913-.466l-.478-.878a16.659 16.659 0 0 1-.866.442zM317.79 127.452l.611.791c.269-.207.534-.416.792-.622l-.625-.781c-.254.203-.513.408-.778.612zM315.384 129.17l.545.838c.283-.184.563-.374.842-.568l-.57-.82c-.271.187-.544.371-.817.55zM310.443 132.667c.32-.11.64-.227.954-.346l-.358-.935a32.94 32.94 0 0 1-.924.337zM307.282 132.597l.266.964c.318-.087.642-.18.97-.276l-.284-.96c-.32.095-.64.186-.952.272zM186.748 325.981l-12.395 14.078h75.965c-5.853-6.275-30.06-33.48-29.24-53.282 1.026.255 2.022.537 2.978.835 4.708 1.472 8.433 3.323 9.968 4.14l15.507 18.513a5.49 5.49 0 0 0 4.22 1.969 5.5 5.5 0 0 0 4.214-9.031l-16.166-19.301a5.51 5.51 0 0 0-1.422-1.205c-.921-.545-22.714-13.193-41.491-5.865-5.18 1.673-22.697 10.847-30.05 14.747l-21.462-10.731a5.501 5.501 0 0 0-4.919 9.838l24 12a5.494 5.494 0 0 0 5.053-.068 935.588 935.588 0 0 1 16.354-8.525c-2.649 17.323-1.114 31.888-1.114 31.888zM210.268 242.71a22.765 22.765 0 0 1 2.422 10.408c6.272 4.05 13.447 9.611 20.637 8.672 15.137-1.978 14.74-16.023 12.214-12.247s-8.022 6.753-21.297-3.497c-5.227-4.036-9.783-5.918-13.744-6.42a3.798 3.798 0 0 1-.232 3.083z" fill="#7d281c" opacity="1" data-original="#000000"></path><path d="M208.342 243.995c-2.323 2.673-6.668 7.258-12.51 11.63.127.362.241.717.35 1.07-.11.085-.348.266-.713.528l.583.813c.175-.126.313-.228.434-.317 2.215 8.346-.523 14.132-1.286 15.107-1.466.405-2.99.645-4.532.715-5.214.234-10.163-1.462-14.037-4.662v-.002h-.002a20.505 20.505 0 0 1-1.738-1.614l.023-.005-.188-.982c-.208.04-.418.076-.628.113-.092-.108-.183-.218-.273-.328-.736.15-1.482.277-2.233.388 4.273 5.765 10.92 9.114 18.11 9.114a22.53 22.53 0 0 0 6.26-.875c.224-.064.747-.215 1.584-1.947.1-.204.22-.479.349-.793.698-.302 1.39-.637 2.066-1.022 9.505-5.416 13.06-17.222 8.38-26.931z" fill="#7d281c" opacity="1" data-original="#000000"></path><path d="M168.665 262.988a1.5 1.5 0 0 0 1.667 1.312c18.275-2.177 32.476-16.404 37.735-22.42a1.5 1.5 0 0 0-2.26-1.975l-.032.037c-6.26-7.742-17.366-10.054-26.297-4.965-9.279 5.287-12.904 16.665-8.722 26.235-.26.036-.517.078-.779.109a1.5 1.5 0 0 0-1.312 1.667zM176.89 266.834c.33-.078.658-.16.982-.244l-.252-.967c-.317.082-.638.162-.96.239zM193.834 258.342c-.259.17-.538.35-.835.537l.533.846c.302-.19.586-.373.85-.546zM186.011 262.632c-.297.135-.6.268-.907.4l.396.919c.313-.135.621-.271.923-.408zM183.633 264.718l-.363-.932c-.305.12-.614.236-.927.351l.346.939c.319-.118.634-.237.944-.358zM180.78 265.738l-.31-.95c-.311.1-.626.2-.944.296l.29.957c.325-.098.646-.2.964-.303zM191.3 259.905c-.277.161-.564.326-.861.492l.487.873c.303-.17.596-.336.878-.5zM188.69 261.335c-.288.149-.584.298-.885.447l.442.897c.308-.152.608-.303.901-.455zM192.363 262.95l.481.876c.306-.168.6-.333.882-.495l-.5-.868c-.276.16-.563.322-.863.487zM184.239 266.627l.344.939c.32-.117.634-.235.944-.354l-.36-.934c-.304.117-.613.233-.928.349zM196.308 261.74l-.551-.833c-.258.17-.535.349-.832.536l.533.846c.304-.191.587-.374.85-.548zM181.719 268.536c.324-.101.644-.204.96-.309l-.315-.949c-.31.103-.625.204-.944.304zM189.72 264.312l.433.9c.31-.148.613-.297.907-.446l-.452-.892c-.288.145-.584.291-.888.438zM187.008 265.537l.388.921c.315-.133.624-.266.926-.4l-.403-.914c-.297.13-.601.262-.911.393zM178.559 268.404l.254.967c.328-.086.652-.174.973-.264l-.27-.963c-.315.088-.634.175-.957.26z" fill="#7d281c" opacity="1" data-original="#000000"></path></g></svg>