<svg xmlns="http://www.w3.org/2000/svg" version="1.1" xmlns:xlink="http://www.w3.org/1999/xlink" width="512" height="512" x="0" y="0" viewBox="0 0 43.349 43.349" style="enable-background:new 0 0 512 512" xml:space="preserve" fill-rule="evenodd" class=""><g><path d="m8.4 8.175-2.955 3.883H7.38L4.475 15.94h13.144l-2.906-3.882h1.936l-2.956-3.883h1.636l-4.282-5.788-4.282 5.788z" fill="#7d281c" opacity="1" data-original="#000000" class=""></path><path d="M9.916 15.166v5.36a13.1 13.1 0 0 1 2.262-.744v-4.615h-1.131zM34.131 12.493l-2.956 3.882h1.936l-2.905 3.883h13.143l-2.905-3.883h1.935l-2.956-3.882h1.636l-4.282-5.788-4.282 5.788z" fill="#7d281c" opacity="1" data-original="#000000" class=""></path><path d="M35.646 19.484v4.256c.286.037.571.079.854.127.478.08.95.18 1.409.299v-4.682h-1.132zM22.405 38.35c-3.28 1.514-13.783 5.535-21.25-1.02-2.645-2.322-.251-5.464 2.211-6.783 4.37-2.335.923-4.931 4.403-7.811 1.892-1.567 5.653-3.412 12.328-2.242 4.348.762 6.986 3.958 11.849 3.84 4.862-.12 12.721 1.135 11.214 7.855 0 0-.803 4.12-8.052 4.65-6.97.508-4.743-2.166-12.703 1.51zm-3.221-12.456c-2.236-.392-5.227-.701-6.973 1.04-2.175 2.166-5.845 7.884-1.344 8.434 2.976.364 6.228-.467 8.88-1.628 2.752-1.206 5.736-1.228 8.179-3.012 2.92-2.132-6.72-4.48-8.742-4.834zM20.427 6.63c.289 0 .564.06.813.167a2.061 2.061 0 0 1 3.293-2.135 2.061 2.061 0 0 1 4.012-.269 2.061 2.061 0 0 1 2.865 2.73 2.061 2.061 0 0 1-1.337 3.63c-1.845-.001-6.896 0-9.646 0a2.061 2.061 0 0 1 0-4.123z" fill="#7d281c" opacity="1" data-original="#000000" class=""></path></g></svg>