<svg xmlns="http://www.w3.org/2000/svg" version="1.1" xmlns:xlink="http://www.w3.org/1999/xlink" width="512" height="512" x="0" y="0" viewBox="0 0 512 512" style="enable-background:new 0 0 512 512" xml:space="preserve" class=""><g><path fill-rule="evenodd" d="m87.771 311.93 19.788-7.793v15.398l-19.788 7.793zm0 31.254 19.788-7.793v15.398l-19.788 7.793zm0 31.254 19.788-7.793v15.398l-19.788 7.793zm0-125.016 19.788-7.793v15.398l-19.788 7.793zm0 31.254 19.788-7.793v15.398l-19.788 7.793zm36.518 19.658 19.788-7.793v15.398l-19.788 7.793zm0 31.254 19.788-7.793v15.398l-19.788 7.793zm0 31.254 19.788-7.793v15.398l-19.788 7.793zm0-125.016 19.788-7.793v15.398l-19.788 7.793zm0 31.254 19.788-7.793v15.398l-19.788 7.793zM87.771 406.699l19.788-7.793v15.398l-19.788 7.793zm36.518-11.596 19.788-7.793v15.398l-19.788 7.793zm280.497 70.489H36.762v14.899h368.024zm-187.265-12.694V202.872l-41.478-23.134v273.16zm34.223 0h-21.529V199.169h-.021a6.325 6.325 0 0 0-3.252-5.529l-54.172-30.214a6.317 6.317 0 0 0-5.733-.211l-19.941 8.434v-19.468l104.648-40.562v341.28zM143.738 186.797c-.336.18-.691.33-1.059.448l-74.18 31.372v234.281h94.85V178.504l-19.611 8.294zm162.179 266.101V136.291l-41.479-23.134v339.741zm67.133 0V310.087l-54.439-14.09v156.901zM245.528 100.459V73.592l-25.303 8.645v-44.38a6.347 6.347 0 0 0-12.694 0v48.717l-43.559 14.881v30.616l81.556-31.611zm43.512 11.933V90.041l-30.818-15.15v21.156c.128.003.256.009.383.02l.106.01.04.004.126.015.024.003c.492.063.982.186 1.459.37l.017.006.133.053h.002l.123.053.049.022.071.032.113.053.014.007.127.064.02.01.13.07.008.004.006.004.033.018 27.836 15.525zm63.527 22.585c-8.575 0-16.366-3.504-22.011-9.149s-9.149-13.437-9.149-22.011 3.504-16.366 9.149-22.011c5.521-5.52 13.094-8.993 21.445-9.143a33.83 33.83 0 0 1 10.304-16.21c5.962-5.201 13.74-8.351 22.233-8.351a33.698 33.698 0 0 1 15.913 3.992 33.971 33.971 0 0 1 9.008 6.98 23.963 23.963 0 0 1 9.987-2.182 23.91 23.91 0 0 1 15.62 5.792 24.101 24.101 0 0 1 6.933 9.974h2.079c8.575 0 16.366 3.504 22.011 9.149s9.149 13.437 9.149 22.012-3.504 16.366-9.149 22.011-13.436 9.149-22.011 9.149h-91.511z" fill="#7d281c" opacity="1" data-original="#000000" class=""></path></g></svg>