<svg xmlns="http://www.w3.org/2000/svg" version="1.1" xmlns:xlink="http://www.w3.org/1999/xlink" width="512" height="512" x="0" y="0" viewBox="0 0 512 512" style="enable-background:new 0 0 512 512" xml:space="preserve"><g><path fill-rule="evenodd" d="M169.322 461.709c-11.494 25.54-46.292 11.396-36.501-13.587l31.447-87.391c1.633-4.538.907-8.995-1.441-13.208l-21.554-38.683-59.372 152.302c-9.552 23.313-42.731 13.032-35.729-11.82l50.671-179.864-14.594-73.677-39.947 84.768c-9.962 19.831-37.493 8.512-30.038-12.763l35.964-102.631c3.16-9.018 9.628-15.467 18.655-18.6 36.613-12.709 52.853-15.711 84.3-38.646 3.896-2.842 5.237-7.888 3.264-12.288l-26.861-59.923C118.162 14.677 148.395.329 158.635 21.2l36.656 74.709c5.834 11.89 3.525 25.564-5.89 34.879-7.653 7.572-22.815 20.281-26.605 29.925-11.891-1.521-24.055 6.019-27.496 18.829-2.305 8.579.329 17.236 6.564 23.471l35.384 35.384c33.022 126.578 50.214 94.114-7.926 223.314zM84.744 131.606c19.225 0 34.81-15.585 34.81-34.81s-15.585-34.81-34.81-34.81-34.81 15.585-34.81 34.81 15.585 34.81 34.81 34.81zm286.081-45.724c19.284 0 34.917-15.633 34.917-34.917s-15.633-34.917-34.917-34.917-34.917 15.633-34.917 34.917 15.633 34.917 34.917 34.917zm60.826 235.004c-13.465-1.523-26.853-4.117-39.898-7.365.009 33.948 6.405 67.409 20.268 98.031 8.868 19.589 38.911 8.068 32.071-12.474-10.044-30.163-15.674-56.545-12.441-78.192zm-60.782-10.077c-13.533 1.227-27.439 7.717-38.569 13.68-1.306.7-2.67 1.212-4.059 1.542-.95 21.637 2.106 48.388 12.905 83.491 6.519 21.205 38.553 12.216 33.154-9.217-6.864-27.249-9.382-60.568-3.431-89.497zm48.489-163.341 13.289 2.122c12.323 1.968 24.002-3.893 29.789-14.95L498.8 65.17c10.159-19.407-17.584-34.394-28.312-15.523l-30.582 53.79c-2.247 3.95-6.828 5.742-11.158 4.364-6.912-2.2-15.678-5.865-24.433-9.905-22.004-10.155-44.978-10.155-66.982 0-8.755 4.04-17.521 7.705-24.433 9.905-4.33 1.379-8.911-.414-11.158-4.364l-30.582-53.79c-10.728-18.871-38.471-3.884-28.312 15.523l36.364 69.47c5.788 11.057 17.466 16.917 29.789 14.95l16.503-2.635a9.505 9.505 0 0 1 10.786 7.323c1.725 7.729 3.556 14.678 5.204 21.224l9.154-8.383c23.546-21.561 57.218 13.159 34.485 35.892l-45.396 45.396c-6.018 22.058-14.981 51.162-19.472 58.93a4.702 4.702 0 0 0 .7 5.69 4.702 4.702 0 0 0 5.665.884c21.669-11.61 41.844-18.358 60.525-13.984 29.301 7.934 55.553 11.353 78.755 10.258 1.818-.086 3.332-1.105 4.095-2.758s.555-3.468-.56-4.906c-17.48-22.564-19.666-55.117-40.961-86.786-7.713-12.959-16.087-29.027-20.053-57.56-.885-6.364 4.579-11.72 10.925-10.707zm-126.962 39.5c0-15.959-12.937-28.896-28.896-28.896s-28.896 12.937-28.896 28.896 12.937 28.896 28.896 28.896 28.896-12.937 28.896-28.896zm13.696 144.177v-56.902c0-6.088 2.17-11.328 6.476-15.634l64.082-64.083c11.705-11.705-5.689-29.735-17.896-18.557l-45.568 41.729c-5.527 5.062-12.565 6.919-19.87 5.245a42.048 42.048 0 0 0-9.398-1.06h-40.834c-3.227 0-6.374.366-9.398 1.06-7.305 1.674-14.344-.184-19.871-5.245l-45.568-41.729c-12.207-11.178-29.601 6.853-17.896 18.557l64.083 64.083c4.305 4.306 6.476 9.545 6.476 15.634v56.902l-23.699 154.55c-2.519 16.428 21.738 21.435 26.641 6.035l39.65-124.522 39.65 124.522c4.903 15.399 29.16 10.393 26.641-6.035l-23.698-154.55z" fill="#7d281c" opacity="1" data-original="#000000"></path></g></svg>