<svg xmlns="http://www.w3.org/2000/svg" version="1.1" xmlns:xlink="http://www.w3.org/1999/xlink" width="512" height="512" x="0" y="0" viewBox="0 0 512 512" style="enable-background:new 0 0 512 512" xml:space="preserve" class=""><g><path d="M241.754 120H46.246l-4 16h203.508zM244.899 216l2.462-32H40.639l2.462 32zM32 152h224v16H32zM213.526 32H198.11l-19.636 72h15.416zM198.042 388.41a74.237 74.237 0 0 0 19.19 43.59h166.724a74.111 74.111 0 0 0 19.171-43.59L411.859 288H189.31zm175.575-46.218 2.407-30.815a8 8 0 1 1 15.952 1.246l-2.408 30.815a8 8 0 0 1-7.966 7.377c-.21 0-.42-.007-.632-.024a8 8 0 0 1-7.353-8.599zm-2.593 33.185.582-7.447a8 8 0 1 1 15.952 1.246l-.582 7.447a8 8 0 0 1-7.967 7.377c-.21 0-.42-.008-.633-.024a8 8 0 0 1-7.352-8.599zM443.141 336h-19.396l-2.783 32h16.846z" fill="#7d281c" opacity="1" data-original="#000000" class=""></path><path d="M474.615 311.586A21.991 21.991 0 0 0 457.994 304h-31.466l-1.392 16h22.727a12 12 0 0 1 11.837 13.973l-6.667 40A11.963 11.963 0 0 1 441.2 384h-21.629l-.5 5.8a89.646 89.646 0 0 1-1.5 10.2h33a22.109 22.109 0 0 0 21.779-18.889l7.428-52a21.986 21.986 0 0 0-5.163-17.525zM177.882 341.269A56.05 56.05 0 1 1 181.955 272h69.2l4-40H32.84l14.4 144H180.9zM128 464a8 8 0 0 1 0-16h16v-8a8 8 0 0 1 8-8h44.946a90.373 90.373 0 0 1-14.6-40H56.639l6.769 88h91.765a45.978 45.978 0 0 1-8.987-16zm-32 0h-8a8 8 0 0 1 0-16h8a8 8 0 0 1 0 16z" fill="#7d281c" opacity="1" data-original="#000000" class=""></path><path d="M160 450a30.034 30.034 0 0 0 30 30h228a30.034 30.034 0 0 0 30-30v-2H160zM136 264a40 40 0 1 0 39.292 47.485l-1.883-21.662A40.081 40.081 0 0 0 136 264zM292 248a8 8 0 0 0 16 0c0-1.655.329-2.091 2.074-4.128 2.36-2.753 5.926-6.914 5.926-14.54s-3.566-11.786-5.926-14.539c-1.745-2.037-2.074-2.473-2.074-4.128a5.769 5.769 0 0 1 .094-1.1 8 8 0 1 0-15.691-3.126 21.709 21.709 0 0 0-.4 4.228c0 7.626 3.566 11.787 5.926 14.54 1.745 2.036 2.074 2.473 2.074 4.127s-.329 2.091-2.074 4.128C295.566 236.213 292 240.374 292 248zM332 248a8 8 0 0 0 16 0c0-1.655.329-2.091 2.074-4.128 2.36-2.753 5.926-6.914 5.926-14.54s-3.566-11.786-5.926-14.539c-1.745-2.037-2.074-2.473-2.074-4.128a5.769 5.769 0 0 1 .094-1.1 8 8 0 1 0-15.691-3.126 21.709 21.709 0 0 0-.4 4.228c0 7.626 3.566 11.787 5.926 14.54 1.745 2.036 2.074 2.473 2.074 4.127s-.329 2.091-2.074 4.128C335.566 236.213 332 240.374 332 248z" fill="#7d281c" opacity="1" data-original="#000000" class=""></path></g></svg>