<svg xmlns="http://www.w3.org/2000/svg" version="1.1" xmlns:xlink="http://www.w3.org/1999/xlink" width="512" height="512" x="0" y="0" viewBox="0 0 512 512" style="enable-background:new 0 0 512 512" xml:space="preserve" class=""><g><path fill-rule="evenodd" d="M148.301 496H77.05l37.726-125.312h13.141l-2.517 4.14c-10.427 17.147-4.969 39.734 12.169 50.19 6.968 4.251 14.842 5.871 22.435 5.143zm228.186-115.863-33.204-87.949a22.451 22.451 0 0 0-5.389-8.229l-51.885-57.44v-94.241c0-14.849-12.116-26.963-26.964-26.963-7.187 0-10.914 2.249-12.616 3.146l-66.071 36.865c-5.774 2.634-10.193 7.976-11.367 14.699l-12.256 70.038c-1.892 10.833 5.357 21.149 16.191 23.041 10.833 1.891 21.149-5.357 23.041-16.191l10.574-60.425 25.542-13.416v62.514c0 11.629 1.491 11.187 7.913 19.05l62.587 67.318 31.737 84.062c4.385 11.644 17.38 17.529 29.024 13.144 11.643-4.384 17.528-17.379 13.143-29.023zM252.866 279.042l-23.43-25.201c-2.701-3.308-5.794-6.448-7.876-10.198l-84.199 138.459c-6.479 10.621-3.122 24.485 7.499 30.965 10.621 6.479 24.485 3.122 30.964-7.499zm47.141-85.699v-57.622l60.604 62.203c7.738 7.781 7.703 20.363-.078 28.1-7.781 7.738-20.362 7.703-28.1-.078zM269.483 16c18.178 0 32.915 14.736 32.915 32.915S287.661 81.83 269.483 81.83s-32.915-14.737-32.915-32.915S251.305 16 269.483 16zm22.143 480h-71.252l7.726-125.312h55.8zm143.324 0h-71.252l-12.74-71.675c5.678.707 11.601.09 17.318-2.063 18.85-7.098 28.424-28.222 21.308-47.07l-1.701-4.505h9.341zM16 496V370.688h42.275zm480-125.312V496l-42.274-125.312z" clip-rule="evenodd" fill="#7d281c" opacity="1" data-original="#000000" class=""></path></g></svg>