<svg xmlns="http://www.w3.org/2000/svg" version="1.1" xmlns:xlink="http://www.w3.org/1999/xlink" width="512" height="512" x="0" y="0" viewBox="0 0 512 512" style="enable-background:new 0 0 512 512" xml:space="preserve"><g><path d="m220.702 468.706-42.515 13.999v4.896c0 13.476 10.924 24.4 24.4 24.4 13.476 0 24.4-10.924 24.4-24.4V465.69a27.167 27.167 0 0 1-6.285 3.016z" fill="#7d281c" opacity="1" data-original="#000000"></path><circle cx="232.25" cy="42.141" r="42.141" fill="#7d281c" opacity="1" data-original="#000000"></circle><path d="M108.358 346.247c-.006-.024-.009-.048-.014-.07-2.371-10.301 1.341-20.565 8.979-26.944l-3.688-11.198-3.821 11.606-3.979-1.31a12.884 12.884 0 0 0-15.858 7.132l-48.462 112.3c-2.997 6.947.614 14.976 7.8 17.342l49.607 16.334c7.185 2.367 14.861-1.947 16.577-9.316l9.921-42.605-17.062-73.271zM468.305 399.697l-81.097-91.559a12.883 12.883 0 0 0-17.292-1.825l-3.372 2.487-7.255-9.834-.007 11.789c9.248 3.675 15.978 12.267 16.941 22.794.002.025.007.047.009.071l6.666 74.935 22.726 37.38a12.884 12.884 0 0 0 18.657 3.675l42.028-31.003a12.887 12.887 0 0 0 1.996-18.91z" fill="#7d281c" opacity="1" data-original="#000000"></path><path d="M372.809 456.718 361.97 334.889a12.884 12.884 0 0 0-12.825-11.742l-4.189-.002.02-33.616c.18-.058.36-.101.54-.164 9.223-3.234 16.862-13.436 11.943-27.392-5.45-15.549-37.516-107.028-42.966-122.889-9.434-27.452-25.252-41.37-47.014-41.37h-70.824c-21.762 0-37.58 13.919-47.014 41.37-5.368 15.623-37.861 108.33-43.156 123.43-4.418 12.591 2.354 23.422 12.134 26.851 1.412.495 2.842.807 4.269.982l11.914 36.182-3.978 1.31a12.884 12.884 0 0 0-8.519 15.159l27.736 119.126c1.722 7.397 9.422 11.672 16.577 9.316l49.607-16.334c7.187-2.367 10.797-10.396 7.8-17.342l-48.462-112.3a12.888 12.888 0 0 0-11.829-7.782c-2.529 0-3.835.584-8.008 1.959L142.862 280.5a20.356 20.356 0 0 0 1.671-3.596c9.299-26.535 25.015-71.369 36.114-103.173L159.554 285.49l5.904 17.928a27.184 27.184 0 0 1 23.251 16.373l38.278 88.701v-68.383h10.536v147.492c0 13.476 10.924 24.4 24.4 24.4 13.476 0 24.4-10.924 24.4-24.4v-13.03a27.265 27.265 0 0 1-5.664-19.183l5.664-62.827v-52.453h4.729l.59-6.537c.951-10.553 7.702-19.165 16.977-22.842l-24.553-135.345c.929 2.66 35.608 102.202 36.86 104.507a19.089 19.089 0 0 0 2.054 3.054l-.05 40.186-4.189-.002h-.008a12.883 12.883 0 0 0-12.831 11.727l-10.981 121.817a12.886 12.886 0 0 0 12.823 14.04l52.226.031h.008a12.884 12.884 0 0 0 12.831-14.026z" fill="#7d281c" opacity="1" data-original="#000000"></path></g></svg>