<svg xmlns="http://www.w3.org/2000/svg" version="1.1" xmlns:xlink="http://www.w3.org/1999/xlink" width="512" height="512" x="0" y="0" viewBox="0 0 192 192" style="enable-background:new 0 0 512 512" xml:space="preserve"><g><path d="M192 32v-8a24 24 0 0 0-48 0v24h-40V24a8 8 0 0 1 16 0v8h16v-8a24 24 0 0 0-48 0v89.2a46.4 46.4 0 0 0-11.194-1.2c-19.2 0-19.2 8-38.4 8S19.2 112 0 112v32c19.2 0 19.2 8 38.4 8s19.2-8 38.4-8 19.2 8 38.4 8 19.2-8 38.4-8 19.2 8 38.4 8v-32c-16.789 0-18.9-6.117-32-7.653V24a8 8 0 0 1 16 0v8zm-48 32v16h-40V64zm-40 54.8V96h40v16.853c-10.374 2.059-13.48 7.147-28.8 7.147a46.407 46.407 0 0 1-11.2-1.2zM115.2 160c-19.2 0-19.2-8-38.4-8s-19.2 8-38.4 8-19.2-8-38.4-8v40h192v-32c-19.2 0-19.2-8-38.4-8s-19.2 8-38.4 8z" fill="#7d281c" opacity="1" data-original="#000000"></path></g></svg>