<svg xmlns="http://www.w3.org/2000/svg" version="1.1" xmlns:xlink="http://www.w3.org/1999/xlink" width="512" height="512" x="0" y="0" viewBox="0 0 512 512" style="enable-background:new 0 0 512 512" xml:space="preserve" class=""><g><path d="M332 210.99h90v-86.781l-90 22.5z" fill="#7d281c" opacity="1" data-original="#000000" class=""></path><path d="m492.8.589-302 90c-8.099 2.401-12.599 10.801-10.199 18.602 2.399 8.099 10.8 12.599 18.6 10.199l40.8-12.248v73.849H15c-8.291 0-15 6.709-15 15v90c0 8.291 6.709 15 15 15h497v-286c0-4.801-2.1-9.3-6-12.001-3.901-3-8.7-3.601-13.2-2.401zM60 270.99H30v-60h30zm60 0H90v-60h30zm60 0h-30v-60h30zm60 0h-30v-60h30zm212-45c0 8.291-6.709 15-15 15H317c-8.291 0-15-6.709-15-15v-91a14.995 14.995 0 0 1 11.367-14.546l120-30c4.438-1.157 9.199-.132 12.861 2.725a14.986 14.986 0 0 1 5.771 11.821v121zM362 330.99h30v181h-30zM422 330.99h30v181h-30zM60 481.99H15c-8.401 0-15 6.599-15 15 0 8.399 6.599 15 15 15h105v-136c0-8.291 6.709-15 15-15h120c8.291 0 15 6.709 15 15v136h62v-181H60zM482 511.99h15c8.401 0 15-6.601 15-15v-166h-30z" fill="#7d281c" opacity="1" data-original="#000000" class=""></path><path d="M225 420.99h15v-30h-90v121h90v-61h-15c-8.291 0-15-6.709-15-15s6.709-15 15-15z" fill="#7d281c" opacity="1" data-original="#000000" class=""></path></g></svg>